<!-- Generator: Adobe Illustrator 23.1.1, SVG Export Plug-In  -->
<svg version="1.1" xmlns="http://www.w3.org/2000/svg" xmlns:xlink="http://www.w3.org/1999/xlink" x="0px" y="0px" width="539.9px"
	 height="609.06px" viewBox="0 0 539.9 609.06" style="enable-background:new 0 0 539.9 609.06;" xml:space="preserve">
<style type="text/css">
	.st0{fill:#2D3434;}
	.st1{fill:#F7F0B9;}
	.st2{fill:#1F2323;}
	.st3{fill:#1D2121;}
	.st4{fill:#292D2D;}
	.st5{fill:#313535;}
	.st6{fill:#393D3D;}
	.st7{fill:#202323;}
	.st8{fill:#CECECD;}
</style>
<defs>
</defs>
<path class="st0" d="M79.16,288.04c37.78-130.12,168.61-231.38,287.2-234.13c17.54-0.41,81.41-1.88,127.17,42.17
	c71.67,69.01,50.47,203.1,2.25,288.41C427.45,505.39,259.1,609.36,150.9,552.46C64.66,507.1,52.86,378.59,79.16,288.04z"/>
<path class="st1" d="M241.17,160.54c-84.05,51.23-124.81,162.13-97.95,245.72c3.97,12.36,18.44,57.38,61.13,81.04
	c66.86,37.07,157.79-3.3,207.2-53.32c70.01-70.86,103.59-208.57,36.52-273.52C394.61,108.7,299.67,124.89,241.17,160.54z"/>
<circle class="st0" cx="263.18" cy="355.2" r="15.27"/>
<circle class="st0" cx="320.99" cy="277.96" r="23.44"/>
<ellipse transform="matrix(0.7071 -0.7071 0.7071 0.7071 -173.2832 387.7347)" class="st2" cx="381.4" cy="403.04" rx="189.3" ry="57.57"/>
<ellipse transform="matrix(0.21 -0.9777 0.9777 0.21 -185.6042 408.1999)" class="st0" cx="159.78" cy="318.95" rx="99.94" ry="36.13"/>
<ellipse transform="matrix(0.8384 -0.5451 0.5451 0.8384 -57.4097 173.0412)" class="st0" cx="263.1" cy="183.33" rx="99.94" ry="36.13"/>
<ellipse transform="matrix(0.7071 -0.7071 0.7071 0.7071 -278.3133 281.5957)" class="st3" cx="200.76" cy="476.75" rx="44.88" ry="109.92"/>
<ellipse transform="matrix(0.7071 -0.7071 0.7071 0.7071 -11.7013 359.2002)" class="st2" cx="427.74" cy="193.72" rx="53.4" ry="129.4"/>
<path class="st4" d="M138.28,447.29c-10.21,31.78-22.36,69.58-43.92,72.25c-27.01,3.35-59.19-49.66-72.25-92.08
	C-16.2,302.92,81.66,176.52,95.78,158.29C156.53,79.82,265.44-0.22,369.2,15.2c5.97,0.89,72.05,11.27,76.5,39.67
	c3.33,21.22-29.3,42.76-43.92,52.42c-54.17,35.77-84.75,21.41-130.33,42.5C190,187.47,162.05,291.46,159.53,301.37
	C146.14,353.94,161.06,376.4,138.28,447.29z"/>
<path class="st5" d="M125,434.01c-10.21,31.78-22.36,69.58-43.92,72.25c-27.01,3.35-59.19-49.66-72.25-92.08
	C-29.48,289.64,68.38,163.24,82.5,145.01C143.25,66.54,252.16-13.5,355.92,1.92c5.97,0.89,72.05,11.27,76.5,39.67
	c3.33,21.22-29.3,42.76-43.92,52.42c-54.17,35.77-84.75,21.41-130.33,42.5c-81.44,37.69-109.39,141.68-111.92,151.58
	C132.87,340.66,147.79,363.13,125,434.01z"/>
<ellipse transform="matrix(0.7071 -0.7071 0.7071 0.7071 -319.7463 222.1961)" class="st4" cx="108.34" cy="497.07" rx="44.08" ry="90.21"/>
<ellipse transform="matrix(0.7071 -0.7071 0.7071 0.7071 -326.0902 219.5684)" class="st6" cx="102" cy="503.41" rx="44.08" ry="90.21"/>
<ellipse transform="matrix(0.7071 -0.7071 0.7071 0.7071 71.976 335.6311)" class="st4" cx="441.13" cy="80.93" rx="44.08" ry="90.21"/>
<ellipse transform="matrix(0.7071 -0.7071 0.7071 0.7071 79.7987 338.8714)" class="st7" cx="448.95" cy="73.11" rx="44.08" ry="90.21"/>
<path class="st8" d="M130.74,609.06"/>
</svg>