<svg xmlns="http://www.w3.org/2000/svg" xmlns:xlink="http://www.w3.org/1999/xlink" viewBox="0 0 1920 539.87"><defs><style>.a{fill:url(#a);}.b,.c,.d{fill:#fff;}.b{opacity:0.5;}.c{opacity:0.3;}.d{opacity:0.6;}</style><linearGradient id="a" x1="960.42" y1="539.87" x2="960.42" gradientUnits="userSpaceOnUse"><stop offset="0" stop-color="#1cbbc0"/><stop offset="0.31" stop-color="#1cb2c0"/><stop offset="0.83" stop-color="#1c98c0"/><stop offset="0.99" stop-color="#1c8fc0"/></linearGradient></defs><title>hero</title><path class="a" d="M.42,0l.5,539.87h1919.5V0Z" transform="translate(-0.42)"/><path class="b" d="M1239,86.09c-.77-6.67-11.8-14.87-26.7-19.37-11.59-3.49-22.47-3.82-28.77-1.38A79.37,79.37,0,0,0,1163,63.13c-21.46.37-38.92,8.36-40.37,18.15-18.26,2.18-31.82,10-31.66,19,.18,10.44,18.59,18.59,41.12,18.2a80.83,80.83,0,0,0,18.77-2.46,78,78,0,0,0,22,2.6,83.91,83.91,0,0,0,16.44-1.89,76,76,0,0,0,24.39,3.3c22.53-.39,40.64-9.18,40.46-19.62C1254.07,94.55,1248.18,89.4,1239,86.09Z" transform="translate(-0.42)"/><path class="b" d="M446.06,234.69c-.69-6-10.56-13.31-23.9-17.33-10.38-3.13-20.12-3.42-25.76-1.24a70.91,70.91,0,0,0-18.42-2c-19.22.33-34.85,7.49-36.14,16.25-16.35,2-28.49,8.93-28.35,17,.16,9.35,16.64,16.64,36.81,16.29a72.31,72.31,0,0,0,16.81-2.2,69.83,69.83,0,0,0,19.72,2.32,74,74,0,0,0,14.72-1.69,68,68,0,0,0,21.83,3c20.17-.35,36.39-8.22,36.23-17.57C459.52,242.27,454.25,237.66,446.06,234.69Z" transform="translate(-0.42)"/><path class="b" d="M779.67,255.77c-.54-4.73-8.37-10.55-18.93-13.74-8.23-2.48-16-2.71-20.41-1a56.66,56.66,0,0,0-14.6-1.57c-15.22.27-27.61,5.94-28.63,12.88-13,1.55-22.58,7.08-22.47,13.49.13,7.41,13.19,13.19,29.17,12.91A58,58,0,0,0,717.12,277a55.75,55.75,0,0,0,15.63,1.84,58.54,58.54,0,0,0,11.65-1.35,53.92,53.92,0,0,0,17.31,2.35c16-.28,28.83-6.51,28.7-13.92C790.33,261.77,786.16,258.12,779.67,255.77Z" transform="translate(-0.42)"/><path class="b" d="M1450.67,359.77c-.54-4.73-8.37-10.55-18.93-13.74-8.23-2.48-16-2.71-20.41-1a56.66,56.66,0,0,0-14.6-1.57c-15.22.27-27.61,5.94-28.63,12.88-13,1.55-22.58,7.08-22.47,13.49.13,7.41,13.19,13.19,29.17,12.91a58,58,0,0,0,13.32-1.74,55.75,55.75,0,0,0,15.63,1.84,58.54,58.54,0,0,0,11.65-1.35,53.92,53.92,0,0,0,17.31,2.35c16-.28,28.83-6.51,28.7-13.92C1461.33,365.77,1457.16,362.12,1450.67,359.77Z" transform="translate(-0.42)"/><path class="b" d="M529.67,100.77C529.13,96,521.3,90.22,510.74,87c-8.23-2.48-15.95-2.71-20.41-1a56.66,56.66,0,0,0-14.6-1.57c-15.22.27-27.61,5.94-28.63,12.88-13,1.55-22.58,7.08-22.47,13.49.13,7.41,13.19,13.19,29.17,12.91A58,58,0,0,0,467.12,122a55.75,55.75,0,0,0,15.63,1.84,58.54,58.54,0,0,0,11.65-1.35,53.92,53.92,0,0,0,17.31,2.35c16-.28,28.83-6.51,28.7-13.92C540.33,106.77,536.16,103.12,529.67,100.77Z" transform="translate(-0.42)"/><path class="c" d="M515,408.57c-.84-7.26-12.86-16.2-29.09-21.1-12.63-3.81-24.49-4.16-31.35-1.51a87,87,0,0,0-22.43-2.41c-23.38.41-42.4,9.12-44,19.78-19.9,2.38-34.68,10.87-34.51,20.73.2,11.38,20.26,20.25,44.81,19.82a87.6,87.6,0,0,0,20.46-2.67,85.38,85.38,0,0,0,24,2.83A90.46,90.46,0,0,0,460.83,442a82.68,82.68,0,0,0,26.58,3.61c24.55-.43,44.29-10,44.09-21.38C531.39,417.79,525,412.18,515,408.57Z" transform="translate(-0.42)"/><path class="c" d="M1292,248.57c-.84-7.26-12.86-16.2-29.09-21.1-12.63-3.81-24.49-4.16-31.35-1.51a87,87,0,0,0-22.43-2.41c-23.38.41-42.4,9.12-44,19.78-19.9,2.38-34.68,10.87-34.51,20.73.2,11.38,20.26,20.25,44.81,19.82a87.6,87.6,0,0,0,20.46-2.67,85.38,85.38,0,0,0,24,2.83,90.46,90.46,0,0,0,17.91-2.07,82.68,82.68,0,0,0,26.58,3.61c24.55-.43,44.29-10,44.09-21.38C1308.39,257.79,1302,252.18,1292,248.57Z" transform="translate(-0.42)"/><path class="b" d="M1581.55,206.69c1.09-9.43,16.7-21.05,37.78-27.4,16.4-4.95,31.81-5.42,40.72-2a112.32,112.32,0,0,1,29.12-3.13c30.38.53,55.08,11.83,57.13,25.68,25.85,3.09,45,14.13,44.82,26.92-.26,14.78-26.32,26.31-58.2,25.75a114.24,114.24,0,0,1-26.57-3.47,110.66,110.66,0,0,1-31.18,3.67,116.07,116.07,0,0,1-23.26-2.68,107.22,107.22,0,0,1-34.52,4.68c-31.88-.55-57.51-13-57.26-27.76C1560.28,218.66,1568.61,211.37,1581.55,206.69Z" transform="translate(-0.42)"/><path class="c" d="M717.55,111.69c1.09-9.43,16.7-21,37.78-27.4,16.4-5,31.81-5.42,40.72-2a112.32,112.32,0,0,1,29.12-3.13c30.38.53,55.08,11.83,57.13,25.68,25.85,3.09,45,14.13,44.82,26.92-.26,14.78-26.32,26.31-58.2,25.75a114.24,114.24,0,0,1-26.57-3.47,110.66,110.66,0,0,1-31.18,3.67,116.07,116.07,0,0,1-23.26-2.68,107.22,107.22,0,0,1-34.52,4.68c-31.88-.55-57.51-13-57.26-27.76C696.28,123.66,704.61,116.37,717.55,111.69Z" transform="translate(-0.42)"/><path class="d" d="M1694.94,73.94c-.67-6.06-10.64-13.56-24.15-17.71-10.51-3.23-20.39-3.58-26.12-1.4a72.6,72.6,0,0,0-18.68-2.1c-19.49.24-35.38,7.41-36.74,16.29-16.59,1.89-28.94,8.91-28.84,17.12.11,9.48,16.79,17,37.25,16.72a74.09,74.09,0,0,0,17.06-2.14,71,71,0,0,0,20,2.46,75.68,75.68,0,0,0,14.94-1.64,68.73,68.73,0,0,0,22.13,3.11c20.46-.25,37-8.14,36.83-17.62C1708.55,81.69,1703.23,77,1694.94,73.94Z" transform="translate(-0.42)"/></svg>