<svg xmlns="http://www.w3.org/2000/svg" viewBox="0 0 610.54 513.35"><title>ilustration</title><g id="Smoke_back" data-name="Smoke back"><path d="M101.58,329.13a74.63,74.63,0,0,1,19.49,2.59,74.36,74.36,0,0,1,111.26,1.7,74.43,74.43,0,0,1,80.23,7.2,74.38,74.38,0,0,1,120.66-18.45q2-1.91,4.14-3.7-.06-1.47-.06-3a74.36,74.36,0,0,1,119.37-59.2A111.36,111.36,0,0,0,475.83,98.23,111.35,111.35,0,0,0,264.42,81.11,111.34,111.34,0,0,0,90.48,205.57,111.34,111.34,0,0,0,32.16,376.78,74.38,74.38,0,0,1,101.58,329.13Z" transform="translate(-11.46 -12.15)" style="fill:#474748"/><path d="M375.62,53.1A47.74,47.74,0,0,1,420,96.27a48.25,48.25,0,0,0,1.13-7.58A47.74,47.74,0,1,0,325.92,90,47.74,47.74,0,0,1,375.62,53.1Z" transform="translate(-11.46 -12.15)" style="fill:#4f4f4f"/><path d="M50,260.42C62.29,244.51,81.48,238.29,95.16,245a24.93,24.93,0,0,0-3.64-3.47c-13.67-10.56-35.8-4.82-49.43,12.82s-13.59,40.5.08,51.06A24.64,24.64,0,0,0,46.44,308C36.54,296.46,37.72,276.32,50,260.42Z" transform="translate(-11.46 -12.15)" style="fill:#4f4f4f"/></g><g id="Character"><path d="M216.81,164.32C291.59,123.19,395,136.35,449,188c8,7.63,37.11,35.42,37.86,75.43,1.19,62.66-68,113-127.46,129.47-84.28,23.41-205.58-5.27-228.43-78.81C112.78,255.44,164.76,192.94,216.81,164.32Z" transform="translate(-11.46 -12.15)" style="fill:#2d3434"/><path d="M345.77,179.69C285.51,165.07,218,196.31,192.69,245.51c-3.74,7.28-17.35,33.77-8.87,63.33,13.27,46.29,71.75,68.81,116,68.54,62.75-.38,139-46.76,138.1-105.56C437.2,225,387.7,189.87,345.77,179.69Z" transform="translate(-11.46 -12.15)" style="fill:#f7f0b9"/><circle cx="257.4" cy="264.05" r="9.62" style="fill:#2d3434"/><circle cx="317.56" cy="255.4" r="14.77" style="fill:#2d3434"/><ellipse cx="288.75" cy="338.02" rx="119.25" ry="36.27" style="fill:#2d3434"/><ellipse cx="238.96" cy="214" rx="62.96" ry="22.76" transform="translate(-89.36 151.85) rotate(-32.88)" style="fill:#2d3434"/><ellipse cx="345.38" cy="199.61" rx="22.76" ry="62.96" transform="translate(67.02 483.94) rotate(-78.03)" style="fill:#2d3434"/><ellipse cx="175.46" cy="290.39" rx="28.27" ry="69.24" style="fill:#2d3434"/><path d="M177.11,209.61s-12.72,68,7.72,96.21S436,264.34,436,264.34s9.73-87.11-34.89-95.3S242.43,140.09,191.55,195.9,177.11,209.61,177.11,209.61Z" transform="translate(-11.46 -12.15)" style="fill:#ffe62b;opacity:0.33"/><ellipse cx="402.63" cy="265.43" rx="33.64" ry="81.51" style="fill:#2d3434"/><path d="M172.21,261.59c-18.7,9.6-41,21-51.74,12.62-13.52-10.54-4.25-48.49,8.83-73.2,38.4-72.54,138.3-85.25,152.71-87.08,62-7.89,146.17,5,185.52,58,2.26,3.05,27.07,37.12,16.41,51.74-8,10.94-32.1,6-42.91,3.79-40.07-8.19-47.29-28.22-77-39.12C311,168.9,252.21,202.77,246.67,206.06,217.3,223.51,213.93,240.16,172.21,261.59Z" transform="translate(-11.46 -12.15)" style="fill:#446536"/><path d="M172.21,249.75c-18.7,9.61-41,21-51.74,12.63-13.52-10.54-4.25-48.49,8.83-73.2C167.7,116.64,267.6,103.93,282,102.1c62-7.89,146.17,5,185.52,58.05,2.26,3,27.07,37.12,16.41,51.74-8,10.94-32.1,6-42.91,3.79-40.07-8.2-47.29-28.22-77-39.12C311,157.07,252.21,190.94,246.67,194.23,217.3,211.68,213.93,228.33,172.21,249.75Z" transform="translate(-11.46 -12.15)" style="fill:#30472b"/><ellipse cx="125.24" cy="258.27" rx="27.76" ry="56.83" style="fill:#4a6a3d"/><ellipse cx="119.59" cy="258.27" rx="27.76" ry="56.83" style="fill:#415d3a"/><ellipse cx="458.83" cy="221.15" rx="27.76" ry="56.83" style="fill:#4a6a3d"/><ellipse cx="465.8" cy="221.15" rx="27.76" ry="56.83" style="fill:#415d3a"/></g><g id="Pin"><path d="M582.16,39.55a19.94,19.94,0,1,0,18.55-21.24A19.94,19.94,0,0,0,582.16,39.55ZM615,37.33a12.92,12.92,0,1,1-13.76-12A12.92,12.92,0,0,1,615,37.33Z" transform="translate(-11.46 -12.15)" style="fill:#363e3e"/><rect x="578.73" y="46.94" width="16.66" height="9.49" rx="1.01" transform="translate(1000.64 -368.69) rotate(131.13)" style="fill:#949ba2"/><polygon points="545.52 6.11 431.07 154.59 524.26 19.52 545.52 6.11" style="fill:#c0b831"/><polygon points="535.18 112.37 449.29 148.58 522.7 112.97 535.18 112.37" style="fill:#c0b831"/><polygon points="559.83 48.34 484.25 110.14 547.46 52.63 559.83 48.34" style="fill:#c0b831"/></g><g id="Smoke_front" data-name="Smoke front"><path d="M574.9,316.92a74.37,74.37,0,1,0-147.55-13.28c0,1,0,2,.06,3q-2.12,1.8-4.14,3.7a74.37,74.37,0,0,0-120.66,18.44,74.39,74.39,0,0,0-80.23-7.19,74.36,74.36,0,0,0-111.26-1.7A74.37,74.37,0,1,0,103,465.14a101.45,101.45,0,0,0,174.74,18.67,99.08,99.08,0,0,0,159-8.48A105.92,105.92,0,0,0,574.9,316.92Z" transform="translate(-11.46 -12.15)" style="fill:#474748"/><path d="M526.53,331.72a70.13,70.13,0,0,1,7.29,90.59,70.11,70.11,0,1,0-90.6-106.44,71.25,71.25,0,0,0-7.28,8.56A70.13,70.13,0,0,1,526.53,331.72Z" transform="translate(-11.46 -12.15)" style="fill:#4f4f4f"/><path d="M168,321.7a47.74,47.74,0,0,1,44.33,43.17,47,47,0,0,0,1.13-7.57,47.74,47.74,0,1,0-95.27-6.39,48.84,48.84,0,0,0,.1,7.66A47.77,47.77,0,0,1,168,321.7Z" transform="translate(-11.46 -12.15)" style="fill:#4f4f4f"/><path d="M351.91,497.61c-24.83,0-45.41-12.76-49.23-29.45a25.44,25.44,0,0,0-.64,5.6c0,19.36,22.33,35.06,49.87,35.06s49.86-15.7,49.86-35.06a24.85,24.85,0,0,0-.64-5.6C397.31,484.85,376.73,497.61,351.91,497.61Z" transform="translate(-11.46 -12.15)" style="fill:#4f4f4f"/></g></svg>