<?xml version="1.0" encoding="utf-8"?>
<!-- Generator: Adobe Illustrator 23.1.1, SVG Export Plug-In . SVG Version: 6.00 Build 0)  -->
<svg version="1.1" id="Layer_1" xmlns="http://www.w3.org/2000/svg" xmlns:xlink="http://www.w3.org/1999/xlink" x="0px" y="0px"
	 viewBox="0 0 14.82 8.53" style="enable-background:new 0 0 14.82 8.53;" xml:space="preserve">
<style type="text/css">
	.st0{fill:#D3D3D3;}
</style>
<path class="st0" d="M5.54,6.3H1.96l-0.8,2.23H0L3.26,0h0.98l3.26,8.53H6.35L5.54,6.3z M2.3,5.38h2.9L3.75,1.39L2.3,5.38z"/>
<path class="st0" d="M8.65,8.53V0h2.41c0.74,0,1.4,0.16,1.97,0.49s1.01,0.79,1.32,1.4s0.47,1.3,0.47,2.09v0.54
	c0,0.8-0.16,1.51-0.47,2.12s-0.75,1.07-1.33,1.39s-1.25,0.49-2.01,0.5H8.65z M9.78,0.92v6.69h1.18c0.87,0,1.54-0.27,2.02-0.81
	s0.72-1.31,0.72-2.31V4c0-0.97-0.23-1.72-0.68-2.26c-0.46-0.54-1.1-0.81-1.94-0.82H9.78z"/>
</svg>
