<?xml version="1.0" standalone="no"?>
<!DOCTYPE svg PUBLIC "-//W3C//DTD SVG 20010904//EN"
 "http://www.w3.org/TR/2001/REC-SVG-20010904/DTD/svg10.dtd">
<svg version="1.0" xmlns="http://www.w3.org/2000/svg"
 width="264.000000pt" height="264.000000pt" viewBox="0 0 264.000000 264.000000"
 preserveAspectRatio="xMidYMid meet">
<metadata>
Created by potrace 1.11, written by Peter Selinger 2001-2013
</metadata>
<g transform="translate(0.000000,264.000000) scale(0.100000,-0.100000)"
fill="#000000" stroke="none">
<path d="M691 2314 c-284 -60 -490 -308 -535 -648 -9 -64 -9 -318 -1 -381 25
-180 111 -371 215 -475 62 -62 210 -148 281 -164 13 -3 44 -10 69 -15 25 -6
101 -9 170 -7 105 3 137 7 200 30 181 64 325 198 395 366 10 25 22 49 26 54 7
8 117 56 130 56 3 0 6 -19 8 -42 12 -213 164 -393 372 -442 105 -24 214 -11
316 39 161 79 264 241 265 420 0 93 -7 125 -46 209 -81 175 -250 279 -443 272
-43 -1 -99 -8 -124 -15 l-46 -13 -50 50 c-27 27 -62 75 -77 107 -54 108 -190
214 -299 230 -39 6 -45 12 -77 67 -89 154 -262 274 -440 306 -77 14 -233 12
-309 -4z m264 -279 c130 -45 207 -144 241 -310 24 -115 24 -396 1 -495 -2 -8
-7 -31 -12 -50 -24 -106 -97 -205 -182 -246 -77 -38 -201 -40 -281 -5 -114 51
-195 189 -218 371 -8 66 -8 311 0 360 21 124 49 199 101 270 36 49 114 99 175
111 41 8 146 4 175 -6z m1298 -645 c93 -47 153 -123 172 -219 33 -161 -69
-319 -227 -356 -146 -33 -280 31 -350 169 -25 48 -33 167 -16 218 13 37 46 88
56 87 30 -5 52 9 101 59 31 32 63 61 71 64 35 13 149 0 193 -22z"/>
</g>
</svg>
